# xmcd
#
# Track frame offsets:
#	150
#	6110
#	23532
#	43422
#	57180
#	62894
#	81403
#	98270
#	117864
#	126879
#	148335
#	172976
#	194905
#	213285
#	230732
#	250017
#
# Disc length: 3617 seconds
#
# Revision: 1
# Processed by: cddbd v1.4PL0 Copyright (c) Steve Scherf et al.
# Submitted via: audiograbber 1.80.04
#
DISCID=e20e1f10
DTITLE=112 - Part 3
DYEAR=2001
DGENRE=R and B
TTITLE0=112 Intro
TTITLE1=Dance whit me
TTITLE2=It's Over Now
TTITLE3=Peaches and Cream
TTITLE4=I surrende (Interlude)
TTITLE5=Missing you
TTITLE6=All I Want Is You
TTITLE7=Don'tHate me ( Feat. Twista)
TTITLE8=Q,Mike,Slim,Daron (Interlude)
TTITLE9=Player
TTITLE10=Sweet Love
TTITLE11=Smile
TTITLE12=Caught Up
TTITLE13=Do What You Gotta Do
TTITLE14=I think
TTITLE15=Still In Love
EXTD=
EXTT0=
EXTT1=
EXTT2=
EXTT3=
EXTT4=
EXTT5=
EXTT6=
EXTT7=
EXTT8=
EXTT9=
EXTT10=
EXTT11=
EXTT12=
EXTT13=
EXTT14=
EXTT15=
PLAYORDER=
